<?xml version="1.0" encoding="utf-8"?>
<!-- Generator: Adobe Illustrator 19.1.0, SVG Export Plug-In . SVG Version: 6.00 Build 0)  -->
<!DOCTYPE svg PUBLIC "-//W3C//DTD SVG 1.1//EN" "http://www.w3.org/Graphics/SVG/1.1/DTD/svg11.dtd">
<svg version="1.1" id="Ebene_1" xmlns="http://www.w3.org/2000/svg" xmlns:xlink="http://www.w3.org/1999/xlink" x="0px" y="0px"
	 viewBox="0 0 290 45" style="enable-background:new 0 0 290 45;" xml:space="preserve">
<style type="text/css">
	.st0{fill:#334C5C;}
</style>
<g>
	<g>
		<path class="st0" d="M20.8,38.4L20.8,38.4L20.8,38.4l-0.4,0.3l-0.2,0.1c-0.4,0.3-1.3,0.7-2.3,1.1c0,0,0,0,0,0
			c-0.1,0-0.3,0.1-0.4,0.1c0,0-0.1,0-0.1,0c-0.1,0-0.2,0.1-0.3,0.1c-0.1,0-0.1,0-0.2,0.1c-0.1,0-0.2,0.1-0.3,0.1
			c-0.1,0-0.2,0-0.3,0.1c-0.1,0-0.2,0.1-0.3,0.1c-0.1,0-0.2,0-0.3,0.1c-0.1,0-0.2,0-0.3,0.1c-0.1,0-0.2,0-0.3,0.1
			c-0.1,0-0.2,0-0.3,0c-0.1,0-0.2,0-0.4,0.1c-0.1,0-0.2,0-0.3,0c-0.1,0-0.3,0-0.4,0c-0.1,0-0.2,0-0.3,0c-0.1,0-0.3,0-0.4,0
			c-0.1,0-0.2,0-0.3,0c0,0-0.1,0-0.1,0c-0.1,0-0.2,0-0.3,0c-0.1,0-0.2,0-0.2,0l4.9,2.9c0.2,0.1,0.5,0.3,0.8,0.4l0.1,0
			c0.1,0,0.1,0.1,0.2,0.1l0.1,0c0.1,0,0.2,0,0.2,0.1l0.6,0.1c1.1,0.2,2.4,0,3.3-0.4c0.2-0.1,0.4-0.2,0.6-0.3l6.9-4
			c0.2-0.2,0.4-0.4,0.5-0.6c0-0.1,0.1-0.1,0.1-0.2c0.1-0.1,0.2-0.3,0.3-0.4c0.1-0.1,0.1-0.1,0.2-0.2c0.1-0.1,0.2-0.3,0.3-0.4
			c0-0.1,0.1-0.2,0.1-0.2c0.1-0.1,0.2-0.3,0.2-0.4c0-0.1,0.1-0.2,0.1-0.2c0.1-0.1,0.1-0.3,0.2-0.4c0-0.1,0.1-0.1,0.1-0.2
			c0.1-0.2,0.1-0.4,0.2-0.5c0,0,0-0.1,0-0.1c0.1-0.2,0.2-0.4,0.2-0.6c0-0.1,0-0.1,0-0.2c0-0.2,0.1-0.3,0.1-0.5c0-0.1,0-0.1,0.1-0.2
			c0-0.1,0.1-0.3,0.1-0.4c0-0.1,0-0.2,0-0.2c0-0.1,0-0.2,0.1-0.4c0-0.1,0-0.1,0-0.2c0-0.1,0-0.2,0.1-0.4c0-0.1,0-0.1,0-0.2
			c0-0.1,0-0.3,0-0.4c0,0,0-0.1,0-0.1c0-0.2,0-0.3,0-0.5c0,0,0-0.1,0-0.1c0-0.1,0-0.2,0-0.2L20.8,38.4L20.8,38.4z"/>
		<path class="st0" d="M38.9,33.6c0.1-0.1,0.1-0.2,0.2-0.3c0.1-0.1,0.1-0.2,0.1-0.3c0.1-0.1,0.1-0.2,0.1-0.3c0-0.1,0.1-0.2,0.1-0.3
			c0-0.1,0.1-0.2,0.1-0.3c0.1-0.2,0.1-0.4,0.1-0.6c0.1-0.4,0.1-0.7,0.1-1l0-8c-0.1-0.2-0.1-0.5-0.2-0.7c0-0.1,0-0.1-0.1-0.2
			c-0.1-0.2-0.1-0.4-0.2-0.5c0-0.1-0.1-0.2-0.1-0.2c-0.1-0.1-0.1-0.3-0.2-0.4c0-0.1-0.1-0.2-0.1-0.2c-0.1-0.1-0.2-0.3-0.2-0.4
			c0-0.1-0.1-0.1-0.1-0.2c-0.1-0.1-0.2-0.3-0.3-0.4c0-0.1-0.1-0.1-0.1-0.2c-0.1-0.2-0.2-0.3-0.4-0.5c0,0,0-0.1-0.1-0.1
			c-0.2-0.2-0.3-0.4-0.5-0.5c0,0,0,0,0-0.1c-0.1-0.1-0.3-0.3-0.4-0.4c0,0-0.1-0.1-0.1-0.1c-0.1-0.1-0.2-0.2-0.3-0.3
			c-0.1,0-0.1-0.1-0.2-0.1c-0.1-0.1-0.2-0.2-0.3-0.3c0,0-0.1-0.1-0.1-0.1c-0.1-0.1-0.2-0.2-0.3-0.2c0,0-0.1-0.1-0.1-0.1
			c-0.1-0.1-0.2-0.2-0.3-0.2c0,0-0.1,0-0.1-0.1c-0.1-0.1-0.3-0.2-0.4-0.3c0,0,0,0-0.1,0c-0.1-0.1-0.2-0.1-0.2-0.2l0,14.4l0,0l0,0.7
			v0v0c0,0.1,0,0.2,0,0.3c0,0,0,0.1,0,0.1c0,0.1,0,0.2,0,0.3c0,0,0,0.1,0,0.1c0,0.1,0,0.2,0,0.3c0,0.1,0,0.1,0,0.2
			c0,0.1,0,0.2,0,0.3c0,0.1,0,0.1,0,0.2c0,0.3-0.1,0.7-0.2,1.1c0,0.1,0,0.1,0,0.2c0,0.1-0.1,0.3-0.1,0.4c0,0.1,0,0.1,0,0.2
			c0,0.1-0.1,0.3-0.1,0.4c0,0.1,0,0.2-0.1,0.2c0,0.1-0.1,0.3-0.1,0.5c0,0.1,0,0.1-0.1,0.2c-0.1,0.2-0.1,0.4-0.2,0.6c0,0,0,0,0,0
			c-0.1,0.2-0.2,0.5-0.3,0.7c0,0.1-0.1,0.1-0.1,0.2c-0.1,0.2-0.1,0.3-0.2,0.5c0,0.1-0.1,0.2-0.1,0.3c-0.1,0.1-0.2,0.3-0.2,0.4
			c0,0.1-0.1,0.2-0.2,0.3c0,0-0.1,0.1-0.1,0.1l5.5-3.2c0.1-0.1,0.2-0.1,0.2-0.2c0.1-0.1,0.2-0.1,0.2-0.2c0.1-0.1,0.1-0.1,0.2-0.2
			c0.2-0.2,0.4-0.5,0.6-0.8l0.1-0.2l0-0.1C38.8,33.8,38.8,33.7,38.9,33.6z"/>
		<path class="st0" d="M33.2,13.8l0.6,0.4c0.1,0,0.1,0.1,0.2,0.1c0,0,0,0,0,0c0,0,0.1,0.1,0.2,0.1c0,0,0.1,0.1,0.1,0.1
			c0.1,0,0.1,0.1,0.2,0.1c0.1,0,0.1,0.1,0.2,0.1c0.1,0,0.1,0.1,0.2,0.1c0.1,0.1,0.2,0.1,0.2,0.2c0.1,0,0.1,0.1,0.2,0.1
			c0.1,0.1,0.3,0.2,0.4,0.3c0,0,0,0,0,0c0.1,0.1,0.3,0.2,0.5,0.4c0,0,0.1,0.1,0.1,0.1c0.1,0.1,0.2,0.2,0.3,0.3
			c0.1,0,0.1,0.1,0.2,0.2c0.1,0.1,0.2,0.2,0.3,0.3c0.1,0.1,0.1,0.1,0.2,0.2c0.1,0.1,0.2,0.2,0.3,0.3c0,0.1,0.1,0.1,0.1,0.2
			c0.2,0.2,0.3,0.3,0.5,0.5c0,0,0,0,0,0c0.2,0.2,0.3,0.4,0.5,0.6c0,0.1,0.1,0.1,0.1,0.2c0.1,0.1,0.2,0.3,0.3,0.4
			c0.1,0.1,0.1,0.2,0.1,0.2c0.1,0.1,0.2,0.3,0.3,0.4c0,0.1,0.1,0.2,0.1,0.3c0,0.1,0.1,0.1,0.1,0.2v-5.7c0-0.3,0-0.7-0.1-1
			c-0.1-0.3-0.1-0.6-0.2-0.9c0-0.1-0.1-0.2-0.1-0.3c0-0.1-0.1-0.2-0.1-0.3c-0.1-0.1-0.1-0.2-0.1-0.3c-0.1-0.1-0.1-0.2-0.2-0.3
			l-0.1-0.2c-0.4-0.7-0.9-1.2-1.5-1.6c-0.2-0.1-0.4-0.2-0.6-0.4l-7-4c-0.2-0.1-0.5-0.1-0.7-0.2c-0.1,0-0.1,0-0.2,0
			c-0.2,0-0.4-0.1-0.6-0.1c-0.1,0-0.2,0-0.3,0c-0.2,0-0.3,0-0.5,0c-0.1,0-0.2,0-0.3,0c-0.2,0-0.3,0-0.5,0c-0.1,0-0.2,0-0.3,0
			c-0.2,0-0.3,0-0.5,0c-0.1,0-0.2,0-0.3,0c-0.2,0-0.3,0-0.5,0.1c-0.1,0-0.1,0-0.2,0c-0.2,0-0.4,0.1-0.7,0.1c0,0,0,0-0.1,0
			c-0.2,0-0.4,0.1-0.6,0.1c-0.1,0-0.1,0-0.2,0.1c-0.1,0-0.3,0.1-0.4,0.1c-0.1,0-0.1,0-0.2,0.1c-0.1,0-0.2,0.1-0.3,0.1
			c-0.1,0-0.1,0.1-0.2,0.1c-0.1,0-0.2,0.1-0.3,0.1C22.1,6,22,6.1,22,6.1c-0.1,0-0.2,0.1-0.3,0.1c-0.1,0-0.1,0-0.2,0.1
			c-0.1,0.1-0.2,0.1-0.3,0.2c0,0,0,0-0.1,0c-0.1,0.1-0.2,0.1-0.3,0.2L33.2,13.8L33.2,13.8z"/>
		<path class="st0" d="M18.9,6.7l0.7-0.4l0,0c0,0,0,0,0,0c0,0,0,0,0,0l0,0c0.1,0,0.1-0.1,0.2-0.1c0,0,0,0,0,0C20,6,20.1,6,20.3,5.9
			c0,0,0,0,0.1,0c0.1-0.1,0.2-0.1,0.3-0.2c0,0,0.1,0,0.1,0c0.1-0.1,0.3-0.1,0.4-0.2c0,0,0,0,0.1,0c0.5-0.2,1.1-0.4,1.7-0.7
			c0,0,0.1,0,0.1,0c0.2-0.1,0.4-0.1,0.5-0.2c0,0,0.1,0,0.1,0c0.2-0.1,0.4-0.1,0.6-0.1c0,0,0.1,0,0.1,0c0.5-0.1,1-0.2,1.5-0.2
			c0,0,0.1,0,0.1,0c0.2,0,0.4,0,0.6-0.1c0.1,0,0.1,0,0.2,0c0.2,0,0.4,0,0.6,0c0.1,0,0.2,0,0.2,0c0.1,0,0.1,0,0.2,0l-4.9-2.9
			C22.6,1.1,22.3,1,22,0.9l0,0c-0.1,0-0.1,0-0.2-0.1l-0.1,0c-0.1,0-0.1,0-0.2-0.1l-0.1,0c-0.1,0-0.1,0-0.2,0l-1.3-0.1
			c-0.1,0-0.1,0-0.2,0l-0.1,0c-0.1,0-0.2,0-0.2,0l-0.1,0c-0.1,0-0.2,0-0.3,0c-0.2,0-0.2,0-0.3,0.1c-0.1,0-0.2,0-0.3,0.1
			c-0.1,0-0.2,0.1-0.3,0.1c-0.1,0-0.2,0.1-0.3,0.1c-0.3,0.1-0.6,0.3-0.9,0.4l-6.9,4C9.8,5.5,9.6,5.6,9.4,5.8c0,0-0.1,0.1-0.1,0.1
			C9.2,6.1,9.1,6.3,9,6.4C8.9,6.5,8.9,6.6,8.8,6.7C8.7,6.8,8.6,6.9,8.5,7.1C8.5,7.1,8.5,7.2,8.4,7.3C8.3,7.4,8.3,7.6,8.2,7.7
			c0,0.1-0.1,0.2-0.1,0.2C8,8.1,7.9,8.2,7.9,8.4c0,0.1-0.1,0.2-0.1,0.2C7.7,8.8,7.6,8.9,7.6,9.1c0,0.1,0,0.1-0.1,0.2
			C7.4,9.5,7.3,9.7,7.3,9.9c0,0.1,0,0.1,0,0.2c0,0.2-0.1,0.3-0.1,0.5c0,0.1,0,0.2-0.1,0.2C7,10.9,7,11,7,11.1c0,0.1,0,0.2-0.1,0.3
			c0,0.1,0,0.2-0.1,0.3c0,0.1,0,0.2,0,0.2c0,0.1,0,0.2,0,0.3c0,0.1,0,0.1,0,0.2c0,0.1,0,0.2,0,0.3c0,0.1,0,0.1,0,0.2
			c0,0.2,0,0.3,0,0.4c0,0.1,0,0.1,0,0.2c0,0.1,0,0.1,0,0.2L18.9,6.7L18.9,6.7z"/>
		<path class="st0" d="M6.6,31.2L6.6,31.2l-0.6-0.4c-0.2-0.1-0.4-0.2-0.6-0.4c-0.3-0.2-0.6-0.4-1-0.7l-0.1-0.1
			C4,29.5,3.7,29.3,3.4,29l-0.1-0.1c-0.5-0.5-1-1-1.5-1.5c0,0,0,0,0,0c-0.2-0.2-0.3-0.3-0.5-0.5c-0.5-0.7-1-1.3-1.3-2v5.7
			c0,0.3,0,0.6,0.1,1c0,0.2,0.1,0.4,0.1,0.6c0,0.1,0.1,0.2,0.1,0.3c0,0.1,0.1,0.2,0.1,0.3c0,0.1,0.1,0.2,0.1,0.3
			c0.1,0.1,0.1,0.2,0.1,0.3c0.1,0.1,0.1,0.2,0.2,0.3C1,33.7,1,33.8,1,33.8l0,0.1L1.2,34c0.2,0.3,0.4,0.6,0.7,0.8C1.9,34.9,2,35,2,35
			c0.1,0.1,0.1,0.1,0.2,0.2c0.1,0.1,0.2,0.1,0.2,0.2l0.4,0.3l7,4.1c0.5,0.1,1,0.2,1.4,0.3c0.1,0,0.1,0,0.2,0c0.2,0,0.4,0,0.6,0
			c0.1,0,0.2,0,0.3,0c0.1,0,0.3,0,0.4,0c0.1,0,0.2,0,0.3,0c0.1,0,0.3,0,0.4,0c0.1,0,0.2,0,0.3,0c0.1,0,0.2,0,0.3,0
			c0.1,0,0.2,0,0.3-0.1c0.1,0,0.2,0,0.3-0.1c0.1,0,0.2,0,0.4-0.1c0.1,0,0.2,0,0.2-0.1c0.1,0,0.3-0.1,0.4-0.1c0.1,0,0.1,0,0.2-0.1
			c0.1,0,0.3-0.1,0.4-0.1c0,0,0.1,0,0.1,0c0.1,0,0.3-0.1,0.4-0.1c0,0,0,0,0,0c0.8-0.3,1.6-0.6,2.1-0.9L6.6,31.2z"/>
		<path class="st0" d="M5.7,14.9c0,0,0-0.1,0-0.4l0,0v0v0c0-0.1,0-0.2,0-0.3c0,0,0-0.1,0-0.1c0-0.1,0-0.2,0-0.3c0,0,0-0.1,0-0.1
			c0-0.1,0-0.2,0-0.3c0-0.1,0-0.1,0-0.2c0-0.1,0-0.2,0-0.3c0-0.1,0-0.1,0-0.2c0-0.2,0-0.3,0.1-0.5c0,0,0,0,0,0
			c0-0.2,0.1-0.4,0.1-0.6c0-0.1,0-0.1,0-0.2c0-0.1,0.1-0.3,0.1-0.4c0-0.1,0-0.2,0.1-0.2c0-0.1,0.1-0.3,0.1-0.4c0-0.1,0-0.2,0.1-0.2
			c0-0.1,0.1-0.3,0.1-0.4c0-0.1,0-0.1,0.1-0.2C6.5,9.4,6.6,9.2,6.7,9c0,0,0,0,0-0.1C6.8,8.7,6.9,8.4,7,8.2C7,8.1,7,8.1,7.1,8
			c0.1-0.2,0.1-0.3,0.2-0.5c0-0.1,0.1-0.2,0.1-0.3C7.5,7.1,7.6,7,7.7,6.8c0.1-0.1,0.1-0.2,0.2-0.3c0,0,0.1-0.1,0.1-0.1L3,9.3
			C2.8,9.4,2.6,9.5,2.4,9.7c-0.5,0.4-1,0.9-1.4,1.6l-0.1,0.2c-0.1,0.1-0.1,0.2-0.2,0.3c-0.1,0.1-0.1,0.2-0.1,0.3
			c-0.1,0.1-0.1,0.2-0.1,0.3c0,0.1-0.1,0.2-0.1,0.3c-0.1,0.3-0.2,0.6-0.2,0.9C0,13.8,0,14.1,0,14.5l0,8v0c1,3.8,4.1,6.2,5.7,7.2
			l0-7.1L5.7,14.9z"/>
	</g>
	<g>
		<path class="st0" d="M54.2,12.5h7.4c1.6,0,3,0.2,4.1,0.6c1.1,0.4,1.9,0.9,2.5,1.5c0.6,0.6,1,1.3,1.3,2.1c0.2,0.8,0.4,1.5,0.4,2.2
			c0,1.3-0.2,2.5-0.7,3.4c-0.5,0.9-1.3,1.7-2.5,2.3l4.3,8.9h-4.7l-3.5-7.9h-0.7h-3.4v7.9h-4.3V12.5z M61.9,21.9
			c0.7,0,1.3-0.1,1.7-0.2c0.4-0.1,0.8-0.4,1.1-0.6s0.4-0.6,0.5-1c0.1-0.4,0.1-0.8,0.1-1.2c0-0.4-0.1-0.7-0.2-1.1
			c-0.1-0.3-0.3-0.6-0.6-0.9c-0.3-0.3-0.7-0.5-1.2-0.6c-0.5-0.1-1.1-0.2-1.9-0.2h-3v5.8H61.9z"/>
		<path class="st0" d="M73.4,12.5h14.3v3.7h-9.9v4.6h9.3v3.8h-9.3v5.2h10.5l-0.4,3.7H73.4V12.5z"/>
		<path class="st0" d="M109,26.2c-0.1,1.1-0.4,2.1-0.8,3.1c-0.4,0.9-1,1.8-1.7,2.5c-0.7,0.7-1.6,1.2-2.7,1.6
			c-1.1,0.4-2.3,0.6-3.7,0.6c-1.6,0-3-0.3-4.2-0.8c-1.2-0.5-2.2-1.3-3-2.2c-0.8-1-1.4-2.1-1.8-3.5s-0.6-2.9-0.6-4.5
			c0-1.7,0.2-3.2,0.7-4.6c0.4-1.3,1.1-2.5,1.9-3.5c0.8-1,1.9-1.7,3-2.2c1.2-0.5,2.5-0.8,4-0.8c1.3,0,2.5,0.2,3.5,0.5
			c1,0.3,1.8,0.8,2.5,1.4c0.7,0.6,1.2,1.4,1.6,2.3c0.4,0.9,0.7,1.9,0.9,3l-4.3,0.6c-0.2-1.2-0.6-2.2-1.2-2.9
			c-0.6-0.7-1.6-1.1-2.9-1.1c-1.7,0-3,0.6-3.8,1.9c-0.9,1.3-1.3,3-1.3,5.4c0,2.3,0.5,4.1,1.4,5.4c0.9,1.3,2.2,1.9,3.7,1.9
			c1.3,0,2.3-0.3,3-1c0.6-0.7,1-1.7,1.2-3H109z"/>
		<path class="st0" d="M121.3,34c-1.6,0-3-0.3-4.2-0.8c-1.2-0.5-2.3-1.2-3.1-2.2c-0.9-1-1.5-2.1-2-3.5c-0.5-1.3-0.7-2.9-0.7-4.6
			c0-1.7,0.2-3.2,0.7-4.6c0.5-1.3,1.1-2.5,2-3.5c0.9-1,1.9-1.7,3.2-2.2c1.2-0.5,2.6-0.8,4.2-0.8c1.6,0,3,0.3,4.2,0.8
			c1.2,0.5,2.3,1.2,3.1,2.2c0.9,1,1.5,2.1,1.9,3.5c0.4,1.3,0.7,2.9,0.7,4.6c0,1.7-0.2,3.2-0.7,4.6c-0.4,1.3-1.1,2.5-1.9,3.5
			c-0.9,1-1.9,1.7-3.1,2.2C124.3,33.7,122.9,34,121.3,34z M121.3,30.2c1.8,0,3.2-0.6,4.1-1.9c0.9-1.3,1.3-3,1.3-5.4
			c0-2.3-0.5-4.1-1.3-5.4c-0.9-1.3-2.3-1.9-4.1-1.9c-1.8,0-3.2,0.6-4.1,1.9c-0.9,1.3-1.3,3-1.3,5.4c0,2.3,0.4,4.1,1.3,5.4
			C118.1,29.6,119.5,30.2,121.3,30.2z"/>
		<path class="st0" d="M134.9,12.5h7.4c1.6,0,3,0.2,4.1,0.6c1.1,0.4,1.9,0.9,2.5,1.5c0.6,0.6,1,1.3,1.3,2.1c0.2,0.8,0.4,1.5,0.4,2.2
			c0,1.3-0.2,2.5-0.7,3.4c-0.5,0.9-1.3,1.7-2.5,2.3l4.3,8.9h-4.7l-3.5-7.9h-0.7h-3.4v7.9h-4.3V12.5z M142.6,21.9
			c0.7,0,1.3-0.1,1.7-0.2c0.4-0.1,0.8-0.4,1.1-0.6c0.3-0.3,0.4-0.6,0.5-1c0.1-0.4,0.1-0.8,0.1-1.2c0-0.4-0.1-0.7-0.2-1.1
			s-0.3-0.6-0.6-0.9c-0.3-0.3-0.7-0.5-1.2-0.6c-0.5-0.1-1.1-0.2-1.9-0.2h-3v5.8H142.6z"/>
		<path class="st0" d="M154,12.5h7.8c3.2,0,5.7,0.9,7.5,2.6c1.8,1.7,2.7,4.3,2.7,7.7c0,1.7-0.2,3.3-0.7,4.6
			c-0.5,1.3-1.2,2.4-2.2,3.3c-0.9,0.9-2.1,1.6-3.4,2c-1.3,0.4-2.9,0.7-4.6,0.7H154V12.5z M161.2,29.7c1.1,0,2.1-0.2,2.9-0.5
			c0.8-0.3,1.5-0.8,2-1.4c0.5-0.6,0.9-1.3,1.1-2.2c0.2-0.8,0.4-1.8,0.4-2.8c0-1-0.1-1.9-0.3-2.8c-0.2-0.8-0.5-1.5-1-2.1
			c-0.5-0.6-1-1-1.7-1.3c-0.7-0.3-1.6-0.5-2.6-0.5h-3.5v13.5H161.2z"/>
		<path class="st0" d="M173.5,28.7h4.2v4.7h-4.2V28.7z"/>
		<path class="st0" d="M193.3,26.1h-12.1c0,1.1,0.1,2.1,0.4,3c0.3,0.9,0.6,1.6,1.1,2.3c0.5,0.6,1.1,1.1,1.9,1.5
			c0.8,0.3,1.7,0.5,2.7,0.5c1.4,0,2.5-0.3,3.4-0.9c0.9-0.6,1.4-1.5,1.7-2.5h0.6c-0.1,0.5-0.3,1.1-0.6,1.6c-0.3,0.5-0.7,0.9-1.1,1.3
			c-0.5,0.4-1,0.7-1.7,0.9c-0.7,0.2-1.4,0.3-2.3,0.3c-2.2,0-3.8-0.7-4.9-2.1c-1.1-1.4-1.7-3.3-1.7-5.7c0-1.3,0.2-2.5,0.5-3.5
			c0.3-1,0.8-1.9,1.4-2.5c0.6-0.7,1.3-1.2,2.1-1.5c0.8-0.3,1.7-0.5,2.7-0.5c1.1,0,2,0.2,2.8,0.6c0.8,0.4,1.4,0.9,1.9,1.6
			c0.5,0.7,0.8,1.5,1,2.4c0.2,0.9,0.3,1.9,0.3,3V26.1z M187.3,18.6c-1.8,0-3.3,0.6-4.3,1.8c-1.1,1.2-1.7,2.9-1.7,5.2h11.5
			c0-1-0.1-1.9-0.3-2.8c-0.2-0.8-0.5-1.6-0.9-2.2c-0.4-0.6-1-1.1-1.7-1.5C189.2,18.7,188.3,18.6,187.3,18.6z"/>
		<path class="st0" d="M201.3,33.4l-6.2-15h0.6l5.9,14.3l5.9-14.3h0.6l-6.2,15H201.3z"/>
		<path class="st0" d="M216.5,18c1.2,0,2.2,0.2,3.1,0.6c0.9,0.4,1.6,1,2.1,1.7c0.5,0.7,0.9,1.6,1.2,2.5c0.3,1,0.4,2,0.4,3
			c0,1.1-0.1,2.1-0.4,3.1c-0.3,1-0.7,1.8-1.2,2.6c-0.5,0.7-1.3,1.3-2.1,1.7c-0.9,0.4-1.9,0.6-3.1,0.6c-1.2,0-2.2-0.2-3.1-0.6
			c-0.9-0.4-1.6-1-2.1-1.7c-0.5-0.7-0.9-1.6-1.2-2.5c-0.3-1-0.4-2-0.4-3.1c0-1.1,0.1-2.1,0.4-3c0.3-1,0.7-1.8,1.2-2.6
			c0.5-0.7,1.3-1.3,2.1-1.7C214.3,18.2,215.3,18,216.5,18z M210.3,26c0,1,0.1,1.9,0.3,2.8c0.2,0.9,0.6,1.7,1.1,2.3
			c0.5,0.7,1.1,1.2,1.9,1.6c0.8,0.4,1.7,0.6,2.8,0.6c1.1,0,2.1-0.2,2.9-0.6c0.8-0.4,1.4-0.9,1.9-1.6c0.5-0.7,0.8-1.5,1.1-2.4
			c0.2-0.9,0.3-1.8,0.3-2.8c0-1-0.1-1.9-0.3-2.8c-0.2-0.9-0.6-1.7-1.1-2.3c-0.5-0.7-1.1-1.2-1.9-1.6c-0.8-0.4-1.7-0.6-2.9-0.6
			c-1.1,0-2.1,0.2-2.8,0.6c-0.8,0.4-1.4,0.9-1.9,1.6c-0.5,0.7-0.8,1.5-1.1,2.4C210.4,24.1,210.3,25,210.3,26z"/>
		<path class="st0" d="M227,12.5h0.6v20.9H227V12.5z"/>
		<path class="st0" d="M243.2,33.4l-0.6,0v-2.7c-0.7,1.1-1.6,1.9-2.6,2.4c-1,0.5-2.1,0.8-3.2,0.8c-1.7,0-2.9-0.5-3.7-1.4
			c-0.8-1-1.2-2.3-1.2-4v-10h0.6v9.9c0,1.6,0.4,2.8,1.1,3.7c0.7,0.9,1.8,1.3,3.3,1.3c0.9,0,1.7-0.1,2.4-0.4c0.7-0.3,1.4-0.8,2.1-1.4
			c0.3-0.3,0.5-0.5,0.7-0.8c0.2-0.2,0.3-0.5,0.4-0.7s0.1-0.6,0.2-0.9c0-0.3,0-0.7,0-1.2v-9.4h0.6V33.4z"/>
		<path class="st0" d="M248.3,19H246v-0.6h2.3v-4.2h0.6v4.2h5.1V19h-5.1v10.4c0,1.2,0.2,2.2,0.7,2.8c0.5,0.6,1.3,0.9,2.3,0.9
			c0.7,0,1.4-0.1,2.1-0.4l0.2,0.5c-0.3,0.1-0.6,0.2-1,0.3c-0.4,0.1-0.8,0.1-1.3,0.1c-0.7,0-1.3-0.1-1.7-0.3
			c-0.5-0.2-0.8-0.5-1.1-0.9c-0.3-0.4-0.5-0.8-0.6-1.4c-0.1-0.5-0.2-1.2-0.2-1.9V19z"/>
		<path class="st0" d="M256.8,12.5h0.6v2.7h-0.6V12.5z M256.8,18.5h0.6v15h-0.6V18.5z"/>
		<path class="st0" d="M267.9,18c1.2,0,2.2,0.2,3.1,0.6c0.9,0.4,1.6,1,2.1,1.7c0.5,0.7,0.9,1.6,1.2,2.5c0.3,1,0.4,2,0.4,3
			c0,1.1-0.1,2.1-0.4,3.1c-0.3,1-0.7,1.8-1.2,2.6c-0.5,0.7-1.3,1.3-2.1,1.7c-0.9,0.4-1.9,0.6-3.1,0.6c-1.2,0-2.2-0.2-3.1-0.6
			c-0.9-0.4-1.6-1-2.1-1.7c-0.5-0.7-0.9-1.6-1.2-2.5c-0.3-1-0.4-2-0.4-3.1c0-1.1,0.1-2.1,0.4-3c0.3-1,0.7-1.8,1.2-2.6
			c0.5-0.7,1.3-1.3,2.1-1.7C265.7,18.2,266.7,18,267.9,18z M261.7,26c0,1,0.1,1.9,0.3,2.8c0.2,0.9,0.6,1.7,1.1,2.3s1.1,1.2,1.9,1.6
			c0.8,0.4,1.7,0.6,2.8,0.6c1.1,0,2.1-0.2,2.9-0.6c0.8-0.4,1.4-0.9,1.9-1.6c0.5-0.7,0.8-1.5,1.1-2.4c0.2-0.9,0.3-1.8,0.3-2.8
			c0-1-0.1-1.9-0.3-2.8c-0.2-0.9-0.6-1.7-1.1-2.3c-0.5-0.7-1.1-1.2-1.9-1.6c-0.8-0.4-1.7-0.6-2.9-0.6c-1.1,0-2.1,0.2-2.8,0.6
			c-0.8,0.4-1.4,0.9-1.9,1.6c-0.5,0.7-0.8,1.5-1.1,2.4C261.8,24.1,261.7,25,261.7,26z"/>
		<path class="st0" d="M278.4,18.5h0.6v2.7c0.7-1.1,1.6-1.9,2.7-2.4c1.1-0.5,2.2-0.8,3.3-0.8c1.7,0,2.9,0.5,3.8,1.4
			c0.8,0.9,1.3,2.3,1.3,4v10h-0.6v-9.9c0-1.6-0.4-2.8-1.1-3.7c-0.7-0.9-1.9-1.3-3.4-1.3c-0.9,0-1.7,0.1-2.5,0.4
			c-0.8,0.3-1.5,0.8-2.2,1.4c-0.3,0.3-0.5,0.5-0.7,0.8c-0.2,0.2-0.3,0.5-0.4,0.7c-0.1,0.3-0.1,0.6-0.2,0.9c0,0.3,0,0.7,0,1.2v9.4
			h-0.6V18.5z"/>
	</g>
</g>
</svg>
